<svg width="24" height="24" viewBox="0 0 24 24" fill="none" xmlns="http://www.w3.org/2000/svg">
<g clip-path="url(#clip0_845_50)">
<path d="M23.9997 11.2472C23.855 8.90722 23.0288 6.66071 21.6229 4.78462C20.2169 2.90854 18.2927 1.48489 16.0874 0.689192C13.8821 -0.106505 11.4922 -0.239469 9.21222 0.306693C6.93229 0.852855 4.86201 2.05427 3.25662 3.76282C1.65122 5.47137 0.580905 7.61236 0.177606 9.92186C-0.225693 12.2314 0.0556603 14.6084 0.98698 16.7599C1.9183 18.9114 3.45887 20.7434 5.41877 22.0299C7.37867 23.3165 9.67222 24.0014 12.0167 24.0002H18.9997C20.3253 23.9989 21.5963 23.4717 22.5337 22.5343C23.4711 21.5969 23.9983 20.3259 23.9997 19.0002V11.2472ZM21.9997 19.0002C21.9997 19.7958 21.6836 20.5589 21.121 21.1215C20.5584 21.6841 19.7953 22.0002 18.9997 22.0002H12.0167C10.6056 21.9996 9.21051 21.7015 7.92236 21.1255C6.63421 20.5495 5.48194 19.7084 4.54066 18.6572C3.59484 17.6065 2.88459 16.3657 2.45756 15.018C2.03052 13.6703 1.89656 12.2469 2.06466 10.8432C2.3301 8.62914 3.32485 6.56639 4.89211 4.98012C6.45936 3.39386 8.50997 2.37431 10.7207 2.0822C11.1519 2.02815 11.5861 2.00076 12.0207 2.0002C14.3511 1.99384 16.6095 2.8081 18.3997 4.3002C19.4452 5.16914 20.3034 6.24135 20.9222 7.45183C21.541 8.6623 21.9076 9.98584 21.9997 11.3422V19.0002Z" fill="#1C2A39"/>
<path d="M8 8.99987H12C12.2652 8.99987 12.5196 8.89452 12.7071 8.70698C12.8946 8.51945 13 8.26509 13 7.99988C13 7.73466 12.8946 7.48031 12.7071 7.29277C12.5196 7.10523 12.2652 6.99988 12 6.99988H8C7.73478 6.99988 7.48043 7.10523 7.29289 7.29277C7.10536 7.48031 7 7.73466 7 7.99988C7 8.26509 7.10536 8.51945 7.29289 8.70698C7.48043 8.89452 7.73478 8.99987 8 8.99987Z" fill="#374957"/>
<path d="M16 11.0001H8C7.73478 11.0001 7.48043 11.1055 7.29289 11.293C7.10536 11.4806 7 11.7349 7 12.0001C7 12.2653 7.10536 12.5197 7.29289 12.7072C7.48043 12.8948 7.73478 13.0001 8 13.0001H16C16.2652 13.0001 16.5196 12.8948 16.7071 12.7072C16.8946 12.5197 17 12.2653 17 12.0001C17 11.7349 16.8946 11.4806 16.7071 11.293C16.5196 11.1055 16.2652 11.0001 16 11.0001Z" fill="#374957"/>
<path d="M16 15H8C7.73478 15 7.48043 15.1054 7.29289 15.2929C7.10536 15.4804 7 15.7348 7 16C7 16.2652 7.10536 16.5196 7.29289 16.7071C7.48043 16.8947 7.73478 17 8 17H16C16.2652 17 16.5196 16.8947 16.7071 16.7071C16.8946 16.5196 17 16.2652 17 16C17 15.7348 16.8946 15.4804 16.7071 15.2929C16.5196 15.1054 16.2652 15 16 15Z" fill="#374957"/>
</g>
<defs>
<clipPath id="clip0_845_50">
<rect width="24" height="24" fill="white"/>
</clipPath>
</defs>
</svg>
