<svg width="20" height="20" viewBox="0 0 20 20" fill="none" xmlns="http://www.w3.org/2000/svg">
<path d="M5.61597 18.2916C4.66813 18.2919 3.7415 18.011 2.95335 17.4845C2.16519 16.958 1.55092 16.2095 1.18827 15.3338C0.825613 14.4581 0.730874 13.4945 0.916037 12.5649C1.1012 11.6353 1.55794 10.7815 2.22847 10.1116L9.29931 3.03996C9.41655 2.92271 9.57557 2.85684 9.74139 2.85684C9.9072 2.85684 10.0662 2.92271 10.1835 3.03996C10.3007 3.1572 10.3666 3.31623 10.3666 3.48204C10.3666 3.64785 10.3007 3.80688 10.1835 3.92412L3.11181 10.995C2.76945 11.3208 2.49576 11.7118 2.30686 12.145C2.11796 12.5782 2.01768 13.0449 2.01193 13.5174C2.00617 13.99 2.09506 14.4589 2.27334 14.8966C2.45163 15.3343 2.71572 15.7319 3.05004 16.0659C3.38436 16.4 3.78216 16.6637 4.21999 16.8417C4.65783 17.0196 5.12685 17.1081 5.59941 17.1019C6.07198 17.0958 6.53854 16.9951 6.9716 16.8059C7.40465 16.6166 7.79545 16.3426 8.12097 16L17.2543 6.86662C17.6728 6.43443 17.9047 5.85503 17.8999 5.25341C17.895 4.6518 17.6539 4.07619 17.2285 3.65078C16.8031 3.22536 16.2275 2.98422 15.6258 2.97939C15.0242 2.97456 14.4448 3.20642 14.0126 3.62496L6.64764 10.995C6.5509 11.0917 6.47416 11.2065 6.4218 11.3329C6.36945 11.4593 6.3425 11.5948 6.3425 11.7316C6.3425 11.8684 6.36945 12.0039 6.4218 12.1303C6.47416 12.2567 6.5509 12.3716 6.64764 12.4683C6.74438 12.565 6.85923 12.6418 6.98562 12.6941C7.11202 12.7465 7.24749 12.7734 7.38431 12.7734C7.52112 12.7734 7.65659 12.7465 7.78299 12.6941C7.90938 12.6418 8.02423 12.565 8.12097 12.4683L12.8335 7.75496C12.8911 7.69524 12.96 7.64759 13.0363 7.6148C13.1125 7.58201 13.1945 7.56473 13.2775 7.56397C13.3605 7.56321 13.4428 7.57898 13.5196 7.61037C13.5964 7.64176 13.6663 7.68814 13.725 7.74679C13.7837 7.80545 13.8301 7.87521 13.8616 7.952C13.893 8.0288 13.9089 8.11109 13.9082 8.19408C13.9075 8.27706 13.8903 8.35908 13.8576 8.43535C13.8249 8.51162 13.7773 8.58061 13.7176 8.63829L9.00431 13.3525C8.79151 13.5653 8.53887 13.7342 8.26082 13.8494C7.98277 13.9646 7.68474 14.0239 7.38377 14.024C7.08279 14.024 6.78475 13.9647 6.50667 13.8496C6.22859 13.7345 5.97591 13.5657 5.76306 13.3529C5.5502 13.1401 5.38135 12.8874 5.26614 12.6094C5.15092 12.3313 5.0916 12.0333 5.09156 11.7323C5.09148 11.1245 5.33288 10.5415 5.76264 10.1116L13.1293 2.74996C13.7935 2.0857 14.6943 1.71248 15.6336 1.7124C16.5729 1.71232 17.4738 2.08539 18.1381 2.74954C18.8023 3.41369 19.1755 4.31451 19.1756 5.25383C19.1757 6.19315 18.8026 7.09403 18.1385 7.75829L9.00514 16.8883C8.56103 17.3346 8.03283 17.6885 7.45109 17.9293C6.86934 18.1702 6.24561 18.2934 5.61597 18.2916Z" fill="#374957"/>
</svg>
