<svg width="26" height="23" viewBox="0 0 26 23" fill="none" xmlns="http://www.w3.org/2000/svg">
<path d="M9.24588 19.7706L9.24493 19.7698L9.24166 19.7669L9.24071 19.7661L9.23433 19.7607C6.8229 17.7057 4.72624 15.919 3.26486 14.1557L3.38035 14.06L3.26486 14.1557C1.62444 12.1763 0.85 10.2855 0.85 8.21269C0.85 6.20662 1.53804 4.34989 2.79363 2.98792L2.79364 2.98791C4.06477 1.60926 5.80963 0.85 7.70457 0.85C9.12385 0.85 10.4247 1.29945 11.5672 2.18306L11.5672 2.18307C12.0927 2.58951 12.5722 3.07822 13 3.64168C13.4278 3.07824 13.9073 2.58951 14.4329 2.18306L9.24588 19.7706ZM9.24588 19.7706C10.0707 20.4734 11.0047 21.2695 11.9734 22.1165M9.24588 19.7706L11.9734 22.1165M23.0973 3.08859L23.2065 2.98792C24.4621 4.3499 25.15 6.20663 25.15 8.21269C25.15 10.2855 24.3757 12.1762 22.7353 14.1555C21.2743 15.9185 19.1785 17.7045 16.7683 19.7586L16.759 19.7665L16.759 19.7666C15.9328 20.4705 14.9973 21.2678 14.0263 22.1169C13.7422 22.3654 13.3775 22.5024 13 22.5023L23.0973 3.08859ZM23.0973 3.08859L23.2065 2.98791C21.9354 1.60925 20.1903 0.85 18.2956 0.85C16.8763 0.85 15.5754 1.29944 14.4329 2.18305L23.0973 3.08859ZM11.9734 22.1165C12.2575 22.3653 12.622 22.5023 12.9999 22.5023L11.9734 22.1165ZM4.57819 13.0672L4.4627 13.163L4.57819 13.0672C3.17102 11.3693 2.55568 9.87534 2.55568 8.21269C2.55568 6.62799 3.08843 5.18467 4.04766 4.14413C4.99202 3.12005 6.28957 2.55587 7.70457 2.55587C8.73706 2.55587 9.68441 2.88344 10.5236 3.53234C11.2741 4.1128 11.7996 4.84923 12.1089 5.36772L12.1089 5.36776C12.2978 5.68423 12.6316 5.87391 13 5.87391C13.3684 5.87391 13.7022 5.68424 13.891 5.36777C14.2006 4.84923 14.726 4.11279 15.4763 3.53232C16.3156 2.88344 17.2629 2.55587 18.2956 2.55587C19.7104 2.55587 21.0081 3.12006 21.9523 4.14413C22.9115 5.18463 23.4443 6.62794 23.4443 8.21269C23.4443 9.87534 22.8289 11.3694 21.4219 13.0672C20.0572 14.7141 18.0239 16.4472 15.6525 18.4683C14.8509 19.1512 13.9456 19.9229 12.9982 20.7468C12.0561 19.9244 11.1522 19.154 10.3523 18.4724L10.3514 18.4716L10.348 18.4687C10.3478 18.4686 10.3477 18.4685 10.3475 18.4684C7.97617 16.4474 5.94288 14.714 4.57819 13.0672Z" fill="#1C2A39" stroke="black" stroke-width="0.3"/>
</svg>
