<svg width="24" height="24" viewBox="0 0 24 24" fill="none" xmlns="http://www.w3.org/2000/svg">
<g clip-path="url(#clip0_845_118)">
<path d="M11.9998 24.0002C10.5758 24.0032 9.20791 23.4457 8.19178 22.4482L4.24978 18.8052C3.20462 17.7906 2.37137 16.5785 1.7984 15.2393C1.22542 13.9001 0.924126 12.4605 0.912002 11.0039C0.899878 9.54735 1.17716 8.10287 1.72777 6.75433C2.27837 5.40579 3.09133 4.18003 4.11946 3.14819C5.14759 2.11636 6.37041 1.29899 7.71696 0.743537C9.06351 0.188081 10.507 -0.0944039 11.9636 -0.0875238C13.4202 -0.0806437 14.8609 0.215464 16.2022 0.783616C17.5434 1.35177 18.7584 2.18065 19.7768 3.22215C21.8396 5.28504 22.9984 8.08285 22.9984 11.0001C22.9984 13.9174 21.8396 16.7153 19.7768 18.7782L15.7858 22.4671C14.7738 23.4551 13.414 24.0056 11.9998 24.0002ZM11.9998 2.00015C10.2197 2.00013 8.47967 2.52797 6.99961 3.5169C5.51955 4.50583 4.36599 5.91144 3.68479 7.55599C3.0036 9.20053 2.82537 11.0101 3.17264 12.756C3.51991 14.5018 4.37709 16.1055 5.63578 17.3642L9.56978 21.0002C10.2205 21.622 11.0849 21.9705 11.985 21.9741C12.885 21.9776 13.7522 21.6358 14.4078 21.0191L18.3918 17.3372C20.0672 15.6466 21.0048 13.3613 20.9994 10.9812C20.994 8.60105 20.0459 6.31999 18.3628 4.63715C17.5292 3.79869 16.5376 3.1339 15.4454 2.68126C14.3532 2.22862 13.1821 1.99711 11.9998 2.00015ZM11.9998 18.0002C10.6153 18.0002 9.26193 17.5896 8.11079 16.8204C6.95965 16.0513 6.06244 14.958 5.53262 13.6789C5.00281 12.3999 4.86419 10.9924 5.13428 9.63452C5.40438 8.27665 6.07107 7.02937 7.05003 6.0504C8.029 5.07143 9.27628 4.40475 10.6341 4.13465C11.992 3.86456 13.3995 4.00318 14.6786 4.53299C15.9576 5.06281 17.0509 5.96001 17.8201 7.11116C18.5892 8.2623 18.9998 9.61568 18.9998 11.0001C18.9977 12.856 18.2595 14.6353 16.9472 15.9476C15.6349 17.2599 13.8556 17.998 11.9998 18.0002ZM11.9998 6.00015C11.0109 6.00015 10.0442 6.29339 9.22193 6.8428C8.39968 7.39221 7.75882 8.1731 7.38038 9.08673C7.00195 10.0004 6.90293 11.0057 7.09586 11.9756C7.28878 12.9455 7.76499 13.8364 8.46425 14.5357C9.16351 15.2349 10.0544 15.7112 11.0243 15.9041C11.9942 16.097 12.9996 15.998 13.9132 15.6195C14.8268 15.2411 15.6077 14.6002 16.1571 13.778C16.7065 12.9558 16.9998 11.9891 16.9998 11.0001C16.9982 9.67455 16.4709 8.40371 15.5336 7.46637C14.5962 6.52903 13.3254 6.00174 11.9998 6.00015ZM13.7068 12.7072C13.8943 12.5196 13.9996 12.2653 13.9996 12.0002C13.9996 11.735 13.8943 11.4807 13.7068 11.2931L12.9998 10.5862V9.00015C12.9998 8.73493 12.8944 8.48058 12.7069 8.29304C12.5194 8.10551 12.265 8.00015 11.9998 8.00015C11.7346 8.00015 11.4802 8.10551 11.2927 8.29304C11.1051 8.48058 10.9998 8.73493 10.9998 9.00015V11.0001C10.9998 11.2653 11.1052 11.5197 11.2928 11.7071L12.2928 12.7072C12.4803 12.8946 12.7346 12.9999 12.9998 12.9999C13.2649 12.9999 13.5193 12.8946 13.7068 12.7072Z" fill="#374957"/>
</g>
<defs>
<clipPath id="clip0_845_118">
<rect width="24" height="24" fill="white"/>
</clipPath>
</defs>
</svg>
